<svg id="visual" viewBox="0 0 1920 1080" width="1920" height="1080" xmlns="http://www.w3.org/2000/svg" xmlns:xlink="http://www.w3.org/1999/xlink" version="1.1"><rect x="0" y="0" width="1920" height="1080" fill="#FFFFFF"></rect><defs><linearGradient id="grad1_0" x1="43.8%" y1="100%" x2="100%" y2="0%"><stop offset="14.444444444444446%" stop-color="#009473" stop-opacity="1"></stop><stop offset="85.55555555555554%" stop-color="#009473" stop-opacity="1"></stop></linearGradient></defs><defs><linearGradient id="grad1_1" x1="43.8%" y1="100%" x2="100%" y2="0%"><stop offset="14.444444444444446%" stop-color="#009473" stop-opacity="1"></stop><stop offset="85.55555555555554%" stop-color="#96cab7" stop-opacity="1"></stop></linearGradient></defs><defs><linearGradient id="grad1_2" x1="43.8%" y1="100%" x2="100%" y2="0%"><stop offset="14.444444444444446%" stop-color="#ffffff" stop-opacity="1"></stop><stop offset="85.55555555555554%" stop-color="#96cab7" stop-opacity="1"></stop></linearGradient></defs><defs><linearGradient id="grad2_0" x1="0%" y1="100%" x2="56.3%" y2="0%"><stop offset="14.444444444444446%" stop-color="#009473" stop-opacity="1"></stop><stop offset="85.55555555555554%" stop-color="#009473" stop-opacity="1"></stop></linearGradient></defs><defs><linearGradient id="grad2_1" x1="0%" y1="100%" x2="56.3%" y2="0%"><stop offset="14.444444444444446%" stop-color="#96cab7" stop-opacity="1"></stop><stop offset="85.55555555555554%" stop-color="#009473" stop-opacity="1"></stop></linearGradient></defs><defs><linearGradient id="grad2_2" x1="0%" y1="100%" x2="56.3%" y2="0%"><stop offset="14.444444444444446%" stop-color="#96cab7" stop-opacity="1"></stop><stop offset="85.55555555555554%" stop-color="#ffffff" stop-opacity="1"></stop></linearGradient></defs><g transform="translate(1920, 1080)"><path d="M-1080 0C-1091.9 -128.6 -1103.9 -257.3 -1027.1 -333.7C-950.4 -410.2 -785.1 -434.4 -707.9 -514.3C-630.7 -594.2 -641.7 -729.8 -588.4 -809.8C-535.1 -889.9 -417.5 -914.3 -308.7 -950.1C-199.9 -985.9 -100 -1032.9 0 -1080L0 0Z" fill="#cae4da"></path><path d="M-720 0C-728 -85.8 -735.9 -171.5 -684.8 -222.5C-633.6 -273.5 -523.4 -289.6 -471.9 -342.9C-420.5 -396.1 -427.8 -486.5 -392.2 -539.9C-356.7 -593.2 -278.3 -609.6 -205.8 -633.4C-133.3 -657.3 -66.6 -688.6 0 -720L0 0Z" fill="#5eaf94"></path><path d="M-360 0C-364 -42.9 -368 -85.8 -342.4 -111.2C-316.8 -136.7 -261.7 -144.8 -236 -171.4C-210.2 -198.1 -213.9 -243.3 -196.1 -269.9C-178.4 -296.6 -139.2 -304.8 -102.9 -316.7C-66.6 -328.6 -33.3 -344.3 0 -360L0 0Z" fill="#009473"></path></g><g transform="translate(0, 0)"><path d="M1080 0C1041.3 101.8 1002.6 203.5 978.6 318C954.7 432.4 945.4 559.6 873.7 634.8C802.1 710 668 733.2 567.2 780.7C466.4 828.2 398.9 900 309.9 953.9C221 1007.8 110.5 1043.9 0 1080L0 0Z" fill="#cae4da"></path><path d="M720 0C694.2 67.8 668.4 135.7 652.4 212C636.4 288.3 630.3 373.1 582.5 423.2C534.7 473.3 445.3 488.8 378.1 520.5C311 552.1 266 600 206.6 635.9C147.3 671.9 73.7 695.9 0 720L0 0Z" fill="#5eaf94"></path><path d="M360 0C347.1 33.9 334.2 67.8 326.2 106C318.2 144.1 315.1 186.5 291.2 211.6C267.4 236.7 222.7 244.4 189.1 260.2C155.5 276.1 133 300 103.3 318C73.7 335.9 36.8 348 0 360L0 0Z" fill="#009473"></path></g></svg>